/* XPM */
static char *c9ec88e798684a72ebbb1273776b79b3nqb2obavyrtGSloL[] = {
/* columns rows colors chars-per-pixel */
"32 32 161 2 ",
"   c #1D131A",
".  c #253015",
"X  c #22301A",
"o  c #1D1C26",
"O  c #2A272F",
"+  c #2C2B2C",
"@  c #2C3B23",
"#  c #2C352D",
"$  c #2D3B28",
"%  c #33332D",
"&  c #2E2A32",
"*  c #302C32",
"=  c #333331",
"-  c #353A33",
";  c #393937",
":  c #33333C",
">  c #3B393B",
",  c #601717",
"<  c #583C3C",
"1  c #314A25",
"2  c #38512D",
"3  c #354234",
"4  c #3D483C",
"5  c #3C5438",
"6  c #42433F",
"7  c #41513E",
"8  c #41613F",
"9  c #363741",
"0  c #393A41",
"q  c #393F4B",
"w  c #3C4343",
"e  c #3B4A46",
"r  c #3C414B",
"t  c #3E484E",
"y  c #3D5742",
"u  c #3F5248",
"i  c #3D5D4B",
"p  c #424444",
"a  c #43454E",
"s  c #424A4E",
"d  c #454D55",
"f  c #4A535B",
"g  c #455959",
"h  c #4E585C",
"j  c #705654",
"k  c #516147",
"l  c #55644C",
"z  c #59674E",
"x  c #576B48",
"c  c #5D6A4F",
"v  c #496455",
"b  c #5B6B54",
"n  c #546C5C",
"m  c #5B6E5B",
"M  c #5E715D",
"N  c #61784B",
"B  c #616D53",
"V  c #616D59",
"C  c #62735D",
"Z  c #6A785E",
"A  c #4D5C64",
"S  c #515A65",
"D  c #4F6064",
"F  c #596463",
"G  c #526967",
"H  c #54666E",
"J  c #557667",
"K  c #5E7363",
"L  c #5E7568",
"P  c #5F786B",
"I  c #546770",
"U  c #556971",
"Y  c #5D7472",
"T  c #5C7D78",
"R  c #637664",
"E  c #667965",
"W  c #697A65",
"Q  c #627569",
"!  c #647A6C",
"~  c #697D6C",
"^  c #607675",
"/  c #667E73",
"(  c #697E71",
")  c #667D7B",
"_  c #8E1B1B",
"`  c #A61D1D",
"'  c #BD1F1F",
"]  c #D52020",
"[  c #876E6A",
"{  c #F04344",
"}  c #6E816A",
"|  c #6C8275",
" . c #678179",
".. c #6C847B",
"X. c #6F887E",
"o. c #728676",
"O. c #70877B",
"+. c #738A7E",
"@. c #657F84",
"#. c #FF7E80",
"$. c #618087",
"%. c #6B8682",
"&. c #6E8982",
"*. c #69878C",
"=. c #6D8C8C",
"-. c #708780",
";. c #718B84",
":. c #798D86",
">. c #738D8A",
",. c #6F908F",
"<. c #74918E",
"1. c #79918D",
"2. c #6C8D92",
"3. c #708794",
"4. c #748E94",
"5. c #738D9D",
"6. c #6E9295",
"7. c #67909B",
"8. c #6E969B",
"9. c #759394",
"0. c #799493",
"q. c #759893",
"w. c #76979A",
"e. c #7B9798",
"r. c #759A9C",
"t. c #7B9A9C",
"y. c #6E96A3",
"u. c #7395A1",
"i. c #7893A4",
"p. c #759BA3",
"a. c #7C9EA3",
"s. c #749CAA",
"d. c #789EAB",
"f. c #7DA2A5",
"g. c #7DA2AB",
"h. c #76A3B6",
"j. c #7EA8B6",
"k. c #9F8781",
"l. c #829C9E",
"z. c #829EA2",
"x. c #82A3A5",
"c. c #82A3AD",
"v. c #83ABAF",
"b. c #84A7B1",
"n. c #89A6B1",
"m. c #84A9B4",
"M. c #8AACB7",
"N. c #85ABBC",
"B. c #8BADBC",
"V. c #86B2BD",
"C. c #8AB2BE",
"Z. c #CFB9B1",
"A. c #FFBBBD",
"S. c #87B3C0",
"D. c #8EB3C3",
"F. c #8FB6CD",
"G. c #94B5C6",
"H. c #93B6CA",
"J. c #97B8CA",
"K. c #95BAD0",
"L. c #A0BFD8",
/* pixels */
"&./ ! ! / Z K / | Y O $.r.v.f.r.4 T ! M O.>.-.M ;.Q l.3.0 : p.K ",
"..Q =.X.( Q R ! R @.* f.} ~ C <.w 9.M z >.| >.1.| R 1.z.e.f y.M ",
"| &.| -.:.O.W V ~ 2.; f.| | } X.w 9.K c / e.:.<.z.O.O.R a.g g.n ",
"&.! +.&.X.| +./ O.6.- f.R ! ! :.> b.P C | &.( 4.;.w.) ~ B.h g.L ",
"....O.| :.E +. .X.2.# 9.R ~ ! -.* *.p.h.g.y.B.S.D.N.d.g.n.D c...",
";.O.>.e.&.| <.;.=.i.e 6.K j j < 0 g n n > : f Q ~ V a w 3 s m...",
"9.>.0.e.>.9.| ( c.N.q 9.j k.Z.[ < p.f.=.1 p.B.H.c.t.6.9.) d S.9.",
"M.m.4...;.>.;...r.i.: =._ < j [ j _ _ r.X 6.~ E C ! ~ | <.: 9.g.",
"T b.B.M.B.N.H.D.g.L._ _ ` ' < j [ ' ` _ _ u.R ! c ~ ( ! -.# 5 y ",
". Y u - > 6 n n 7 _ ` ] ] ` ` < [ _ ' ` ` _ C V | W E ( z.B.B.e.",
"h =.=.<.&.<.9.e._ ` { #._ , _ < j , _ ] ` ` _ ( E | X.E o.:.1.M.",
"G f.m Z } +.} , ` ' #.{ ' _ , , , _ ' { ' ` _ , ( 0.X.~ ! b / G.",
"v &.b | e.1.;., ' { #.A.{ ' _ _ _ ' { ] ' ' ` , =.-.:.;.! C o.J.",
"2 &.<.q.f.x., _ ' { { #.A.A.#.{ { { ] ' ` ` ` _ , | ;.>.~ ( o.G.",
"3 h F s p p , _ ` ] { { { { { { ] ] ' ` _ _ ' _ , >.>.( C R ~ B.",
"f.g.f.u.^ %., _ ` ' ] { { ] ] ] ' ` ` _ _ _ ' _ , O.( E V E Z z.",
"/ R E R ! >., _ ` ` ] { ] ] ' ` ` _ _ _ _ _ ' _ , ~ C E m C Z R ",
"b b b k M 6., _ ' ` ' { ] ' ` ` ` _ _ _ _ ` ' _ , C B E W | W m ",
"%.K b 0.| 6.* , ' ` ` ] { ' ` ` ` _ _ _ _ ' ` , +.( ~ ..( ~ | / ",
"| | K e.| a.= , _ ' ` ' ] ' ` ` ` ` _ _ ` ' _ , -...R >.!  .;.X.",
"e.;.>.c.&.b.@ a., _ ' ` ' ] ` ` ` ` _ ` ' _ , &.| / | ;.;...%.<.",
"t.>.9.9.X.B.@ w.1., _ ' ` ' ' ` ` _ ` ` _ , >.| ~ ! ..&.>.%.%.e.",
"..m M ( 0.c.$ a.:./ , _ _ _ ` ' ` ` _ _ , K E ! Q R ~ C K ! ! 9.",
"b.D.G.B.c.5.% b.;.| 9., , _ _ _ _ _ , , Q M ! R / | q.g.V.D.N.g.",
"H Y f p d :   m.>.>.<.O.O., , , , , & d.<.C C E ..<.t.J i g S t ",
"j.N.s.*.5.) + N.X.! | -.| |  .! C a.: 5.C.D.M.V.V.v.f.- 7.y.s.g.",
"L M m P  . .$ g.X.| Q >. .&.! m ~ S.: r f e y 8 x N x + h.2.P T ",
"R l z b l Q 1 r.1.| a.e.>.%.%.~ ;.V.9 d.u.p.g.8.q.f.9.> h.K L ..",
"-.M K R R &.5 b.l.l.a.4.) ( ! V -.m.o g.! L L | ) &.a.d h.K 4.&.",
"| b ! Q X.9.3 g.e.>.&.-.| &.K K ;.r.+ r.R L | L ( E 1.S S...&.;.",
"R ~ ~ L  .>.f u.c.n.c.c.c.t.w.9.f.g.= r.Q  .K K ! / &.S F.| ..K ",
"L %.~ E ! &.t I H U U U A d g g I g % ,.! ) / m ! ! >.S K.D.y.K "
};
