/* XPM */
static char *f91edf3dd67b4df0dff875b9a0e93df9AkNb2MfwDjYzyx83[] = {
/* columns rows colors chars-per-pixel */
"32 32 206 2 ",
"   c #253015",
".  c #2A272F",
"X  c #2B2D2C",
"o  c #33362C",
"O  c #353838",
"+  c #334827",
"@  c #2B443A",
"#  c #354435",
"$  c #38473A",
"%  c #3C5438",
"&  c #40453E",
"*  c #363A42",
"=  c #3C4343",
"-  c #3C444C",
";  c #3E5740",
":  c #2D5F60",
">  c #3E5A6B",
",  c #444949",
"<  c #444C54",
"1  c #4A545C",
"2  c #48585A",
"3  c #525B5F",
"4  c #55644B",
"5  c #556650",
"6  c #5A6A53",
"7  c #5A6D5B",
"8  c #5E715D",
"9  c #606D58",
"0  c #66755B",
"q  c #62725C",
"w  c #4D5C64",
"e  c #4F6064",
"r  c #54666E",
"t  c #576C6B",
"y  c #557264",
"u  c #5D7364",
"i  c #5E7568",
"p  c #5D796D",
"a  c #466772",
"s  c #546871",
"d  c #5C7B73",
"f  c #597A78",
"g  c #627564",
"h  c #657964",
"j  c #697A64",
"k  c #617669",
"l  c #657B6D",
"z  c #697D6B",
"x  c #657D72",
"c  c #697E72",
"v  c #637A78",
"b  c #6D826E",
"n  c #6B8275",
"m  c #65827B",
"M  c #6B847B",
"N  c #6C847B",
"B  c #70877B",
"V  c #728A7B",
"C  c #2D6B83",
"Z  c #316E87",
"A  c #397388",
"S  c #367B9E",
"D  c #437A89",
"F  c #657F84",
"G  c #338AA0",
"H  c #3894B5",
"J  c #4F8488",
"K  c #58878B",
"L  c #538A8D",
"P  c #538C94",
"I  c #568F9A",
"U  c #4F919E",
"Y  c #5C929A",
"T  c #638284",
"R  c #6B8582",
"E  c #6D8982",
"W  c #658789",
"Q  c #6C8C8C",
"!  c #718A84",
"~  c #748E8A",
"^  c #74908E",
"/  c #7C978B",
"(  c #648F95",
")  c #738B93",
"_  c #6F9192",
"`  c #67909B",
"'  c #6B939C",
"]  c #759494",
"[  c #799494",
"{  c #799897",
"}  c #75999C",
"|  c #7B9A9B",
" . c #4893A6",
".. c #5B96A4",
"X. c #5799A9",
"o. c #4898B8",
"O. c #549CB3",
"+. c #589EB7",
"@. c #689AA6",
"#. c #7597A1",
"$. c #749AA4",
"%. c #7C9DA4",
"&. c #749DAB",
"*. c #789EAB",
"=. c #669FB0",
"-. c #739FB5",
";. c #48A4BD",
":. c #5AA1B5",
">. c #5AA3BC",
",. c #7DA2A6",
"<. c #7DA3AB",
"1. c #63A2B3",
"2. c #62A8BF",
"3. c #74A2BA",
"4. c #77A7B9",
"5. c #44A2C3",
"6. c #46A7CA",
"7. c #49A9CF",
"8. c #56A7C5",
"9. c #5BACCA",
"0. c #45ADD5",
"q. c #4AADD6",
"w. c #49AFDB",
"e. c #55AED1",
"r. c #4EB1D7",
"t. c #5BB1D3",
"y. c #56B5DA",
"u. c #63ABC6",
"i. c #79B1C8",
"p. c #64B4D4",
"a. c #69B7D7",
"s. c #63B7DB",
"d. c #6ABADC",
"f. c #75B9D5",
"g. c #72BDDA",
"h. c #4CB7E6",
"j. c #4FB8EA",
"k. c #57B7E0",
"l. c #56BAE3",
"z. c #59BBE5",
"x. c #59BDEA",
"c. c #64BEE5",
"v. c #7BC3DF",
"b. c #5BC1EE",
"n. c #5FC3F3",
"m. c #6DC2E3",
"M. c #63C3EC",
"N. c #6CC3E9",
"B. c #75C3E3",
"V. c #79C5E4",
"C. c #74C7EA",
"Z. c #7CCCED",
"A. c #66C7F0",
"S. c #6CCBF4",
"D. c #73CCF2",
"F. c #7CD0F6",
"G. c #7BD2FA",
"H. c #829C9E",
"J. c #839EA3",
"K. c #83A3AC",
"L. c #83A7B2",
"P. c #85A9B4",
"I. c #8CAAB6",
"U. c #83ABBD",
"Y. c #8AB0BE",
"T. c #8EB3C3",
"R. c #88B3CA",
"E. c #8EBBD2",
"W. c #95BAD0",
"Q. c #84CAE9",
"!. c #9AD2EA",
"~. c #82CFF0",
"^. c #84D3F4",
"/. c #8AD4F6",
"(. c #85D4F9",
"). c #89D5F9",
"_. c #8FDAFB",
"`. c #94D7F7",
"'. c #92D8F7",
"]. c #9AD8F3",
"[. c #93DAFB",
"{. c #9CDDFB",
"}. c #A6D9EE",
"|. c #A4DDF5",
" X c #AADEF7",
".X c #9FE0FB",
"XX c #ABE1F7",
"oX c #A2E1FD",
"OX c #ACE3FA",
"+X c #B5E1F6",
"@X c #BEE6F7",
"#X c #B3E4FC",
"$X c #BBE6FB",
"%X c #BEE9FD",
"&X c #C0E6F8",
"*X c #C2ECFF",
"=X c #CCEEFF",
"-X c #D5EFFB",
";X c #CFF0FF",
":X c #D4F1FF",
">X c #DCF3FE",
",X c #E4F6FE",
"<X c #E9F7FD",
"1X c #EBF9FE",
"2X c #F3FBFF",
"3X c #FBFEFF",
/* pixels */
"E c x l l 0 k x n d . F } L.,.} $ f l q N ~ ! q ! g H.) * O $.i ",
"N k ! N c k g z g F X K.b j q ^ , _ 7 6 ~ n ~ ~ N j / J.[ 1 #.y ",
"n E n ! ~ B z 9 l ) O ,.n n b E = ] g 6 n { ~ ^ J.B B g H.1 &.7 ",
"E l E E B n B c B ' Z k.l.F.{..XoX[.D.y.7.O.m ] E ] v c I.3 *.i ",
"N N B N ~ j V Y q.D.%X-X,X2X3X3X3X3X,X:X:X%XF.j.a.U.<.<.P.w K.M ",
"~ B ~ [ ! W q.(.=X:X#X^.!.2X>X].>X2Xv.t.M.#X:X:X^.5.> = # < P.M ",
"] ~ [ | +.c.=X,X XC.D @.XX2XZ.b ^.<X+X' + u.N.OX<X=Xb.>.m - Y.] ",
"P.L.^ o.^.<X<X|.V.d.o.{.<X,Xd.1.m.,X1X'.H t.u.g.}.<X<X^.8.* ] <.",
"d L.p.(.1X3X3X1X,X>X,X2X3X3X>X:X>X2X3X2X<X>X>X1X2X2X3X1X{.C % ; ",
"  K c.,X3X<X+XOXXX@X1X3X,X%X#XOXXX%X<X3X<X%XOXOX XOX@X2X1XG.i.| ",
"3 q.=X,X2X>Xd.1.1.a.2X:Xy.O.O.X.D P z.>X2XC.J  .U ..a.<X3X>Xq.P.",
"D ).:Xa.XX<X^.0 3.OX,XM.l E M l 9 h n A.,X%XU b c } `.1X-X1X).f.",
"H ;X'.Y e.=X:Xm.G.>X{.J ~ } x 5 6 7 u 9.oX,XS.p E h.>X;Xu.|.=Xx.",
"r.:Xl.{ ,.x.,X1X2X:Xh.n ~ ^ ^ x y M Q _ H :X:X8.O.%X>Xb.l y.:Xn.",
"D.;XH , = > oX3X3X~.-.x W ! N l b u Q ( @ S.,X+X X,X{.K q o.=XG.",
"[.%Xu.| v T `.3X2Xc.' <.K.R.E.-.U.R.3.a X 9.#X2X3X:X6.g 6 P %X[.",
"_.%XL u h 6.:X3X3X#XA , & & O X o # # , O <.C.2X3X`.q h 7 K %X[.",
"D.;X .4 J _.,X X$X,XS.' ^ K m m f t # Q } _ Z.2X3XOXp h h ;.=XF.",
"x.:Xe.] z.,X*X8.e.;X:X0.k x N m E T # } l 5.:X1X1X>Xl.N l y.:Xl.",
"6.;X|.d.=X>Xq.Q m A.,X.XP u b V H.T $ } P oX>X~.m.>X*X8.P _.=X6.",
"1.).<X:X1X_.@ %.^ P #X>XM.8 6 b h Q o } A.,X#XX.M /.<X].d.:X^.=.",
"| q.:X,X,XN.: 8.:.I v.2X:Xy.P U O.:.A M.:X2XC.Y P p.,X2X>X:X0.[ ",
"T f M.,X:X$XOXOXOXOX@X1X3X<X@XXXOXOX%X,X3X1X&XOXOX+X1X3X<XN.K ] ",
"P.T.d.^.<X<X3X2X<X>X>X<X2X3X3X>X:X>X2X3X2X<X>X<X1X3X3X1X[.s.U.,.",
"r i 1 S Z.,X,X Xv.p.t.e.`.1X,Xg.X.B.,X<X{.9.2.f.}.<X<X).G 2 e - ",
"R.4.*.W +.x.=X,XXXp.X.! ( XX1XZ.h ^.1X$XR.f.N.OX,X;XA.C ` @.@.<.",
"8 8 7 l n K H (.:X:XOXD.s.Q.2X>X].>X3X!.~.#X:X=X^.;.7 X 3.Q l x ",
"g 4 4 6 4 h + +.q.D.%X:X:X<X2X3X3X3X2X,X:X%XD.w.1.,.] * 3.i i M ",
"E q q g g E % L.H.#.9.q.x.D._.{.oX.XS.b.6. .d x c E J.< 3.g ] ! ",
"c 6 l l ! ] # <.H.~ N ! v E 8 8 ! #.X } g i n i c l ) 3 U.N E ! ",
"l l l g c Q 1 #.K.P.K.K.K.| } ] ,.*.o } k N u u c c R 3 R.n M u ",
"g N l l l ! - r r s s s w < 2 1 s 1 o ^ x v l 7 l l ~ e W.T.#.u "
};
