/* XPM */
static char *_49e6938c6db4ad3ce857ee1b2b6d7588eIs9eTBqjjZlNpz[] = {
/* columns rows colors chars-per-pixel */
"32 32 170 2 ",
"   c #1D131A",
".  c #253015",
"X  c #1D1C26",
"o  c #2A272F",
"O  c #2C2B2C",
"+  c #2C3928",
"@  c #33332D",
"#  c #302C32",
"$  c #333232",
"%  c #353A33",
"&  c #33333C",
"*  c #3A3939",
"=  c #334827",
"-  c #38512D",
";  c #354234",
":  c #3D483C",
">  c #3C5438",
",  c #42433F",
"<  c #373940",
"1  c #3A3C41",
"2  c #383B46",
"3  c #3C4343",
"4  c #3C414A",
"5  c #3C4948",
"6  c #3D5742",
"7  c #3E584A",
"8  c #424444",
"9  c #43454E",
"0  c #424A4E",
"q  c #454D55",
"w  c #4A535B",
"e  c #455959",
"r  c #4E585C",
"t  c #525B5F",
"y  c #56664A",
"u  c #5D6A4F",
"i  c #496455",
"p  c #5B6B54",
"a  c #546C5C",
"s  c #5B6E5B",
"d  c #5E715D",
"f  c #61784B",
"g  c #616D53",
"h  c #616C58",
"j  c #63735D",
"k  c #69785E",
"l  c #4D5C64",
"z  c #546766",
"x  c #5A6665",
"c  c #54666E",
"v  c #5E7363",
"b  c #5A7769",
"n  c #5D7569",
"m  c #546770",
"M  c #556971",
"N  c #5C7975",
"B  c #627664",
"V  c #667965",
"C  c #697A65",
"Z  c #627569",
"A  c #657A6C",
"S  c #697D6C",
"D  c #667E73",
"F  c #697E72",
"G  c #617578",
"H  c #667D7B",
"J  c #6E816B",
"K  c #6C8274",
"L  c #678179",
"P  c #6C847B",
"I  c #6F887E",
"U  c #718575",
"Y  c #70877B",
"T  c #748B7E",
"R  c #657F84",
"E  c #6B8682",
"W  c #6E8982",
"Q  c #69878C",
"!  c #6D8C8B",
"~  c #758A83",
"^  c #718B84",
"/  c #738E8A",
"(  c #6F908F",
")  c #769087",
"_  c #74918E",
"`  c #7A938D",
"'  c #6C8D92",
"]  c #708794",
"[  c #748E94",
"{  c #738D9D",
"}  c #6E9395",
"|  c #6B939B",
" . c #759494",
".. c #799493",
"X. c #7A9896",
"o. c #76979A",
"O. c #769A9B",
"+. c #7B9A9C",
"@. c #6E96A3",
"#. c #7395A1",
"$. c #7893A4",
"%. c #759BA4",
"&. c #7C9EA3",
"*. c #749CAA",
"=. c #789EAB",
"-. c #7DA2A5",
";. c #7DA2AB",
":. c #79A5B6",
">. c #0086FF",
",. c #01BBFF",
"<. c #23B4FF",
"1. c #2BB8FF",
"2. c #5EBCFF",
"3. c #0CC0FF",
"4. c #14C3FF",
"5. c #1FC7FF",
"6. c #01D4FF",
"7. c #0CD7FF",
"8. c #1ADBFF",
"9. c #23C9FF",
"0. c #2BCCFF",
"q. c #3BC1FF",
"w. c #43C5FF",
"e. c #5EC7FF",
"r. c #6AC6FF",
"t. c #6AD0FF",
"y. c #76D0FF",
"u. c #7ED6FF",
"i. c #76D8FF",
"p. c #7EDDFF",
"a. c #5CE1FF",
"s. c #819C99",
"d. c #84A499",
"f. c #829EA2",
"g. c #82A3A4",
"h. c #85A9A5",
"j. c #89ACA4",
"k. c #83A3AD",
"l. c #83ABAF",
"z. c #89AEAA",
"x. c #90B6AF",
"c. c #83A7B2",
"v. c #89A6B1",
"b. c #84A9B4",
"n. c #8AACB7",
"m. c #85ABBC",
"M. c #8BADBC",
"N. c #88B1B9",
"B. c #8AB3BD",
"V. c #93B9B2",
"C. c #93BAB8",
"Z. c #98C2BE",
"A. c #8EB3C3",
"S. c #8BB5C7",
"D. c #94B5C6",
"F. c #95BBC7",
"G. c #93B6CA",
"H. c #95BAD0",
"J. c #97C3C7",
"K. c #9BC5C4",
"L. c #9CC9CD",
"P. c #9FCED3",
"I. c #A3D4D6",
"U. c #A5D6D9",
"Y. c #A8DCE2",
"T. c #8DE4FF",
"R. c #8DE8FF",
"E. c #8AFEFF",
"W. c #B1E4EE",
"Q. c white",
/* pixels */
"W D D A A k Z D U N o R o.l.-.O.: N D d Y / W h ^ Z s.] 2 & %.n ",
"P Z W P F Z B V B R # -.J S j _ 3 } s p / H ) _ P C ` f...w %.d ",
"K W K ^ / Y S s F ' % -.K K K T 8  .j p K X.~ _ f.Y Y B s.w *.a ",
"W A W ^ Y K Y F Y ' % -.n V C ^ * ;.A j K W F  .W  .H S M.r ;.n ",
"P P Y P ) V T K I ' + o.B S B ^ # Q -.;.:.@.m.A.S.m.=.;.n.z c.L ",
"~ Y / o.~ K / ~ ! $.5 ' B K S F 2 e a a * & w Z S h 9 3 ; 5 m.P ",
" ./ ..X./  .K D k.m.4 } B T j.x.J.L.F.} = %.m.G.k.+.} X.H q M. .",
"n.c./ P / / ^ E O.$.& o.z.I.R.i.t.i.R.Y.b %.J B j V A K _ &  .;.",
"N c.n.n.M.m.G.A.;.L.2 P.R.e.q.0.9.0.q.r.R.I.U V u S F S E @ > > ",
". N 7 % * , a a 8 a b.T.w.9.7.6.6.6.3.9.w.p.Z.S F C B F f.M.M.+.",
"r ! / / W _ _ X.g.k.p.1.4.6.E.E.a.6.6.,.4.q.p.K.Y P P V Y ) ` n.",
"z -.s B J T J k K.R.w.5.6.E.Q.Q.E.a.6.6.,.7.w.R.j...Y S S u L D.",
"i ! p K X.` ~ s.W.r.5.6.6.E.Q.Q.E.a.6.6.6.,.8.r.U.` / ~ V B F H.",
"- W ( X.;.g.` x.R.q.3.6.6.a.E.E.E.a.,.6.6.,.7.q.R.j./ / S F U D.",
"% r x 0 8 8 x K.i.0.,.6.6.6.a.a.a.,.>.,.6.,.,.0.i.K./ S j j S M.",
"-.;.-.O.G E z P.t.5.,.6.6.a.,.>.>.>.>.,.6.,.6.9.r.C.F V h C C f.",
"F B B v V ! $ -.u.1.6.,.6.a.6.,.>.>.,.a.a.,.6.1.y.V.B B s j k B ",
"p s p y v } 1 N.T.1.7.,.,.6.a.6.,.,.a.Q.E.a.7.q.T.d.g V C K C h ",
"P v p ..K  .@ X.U.2.9.a.,.,.6.a.a.6.a.E.a.a.9.2.U.T S Y D K K D ",
"P K v ..P +.$ ! j.T.w.4.a.,.,.>.>.,.,.a.a.4.w.T.z.Y B / A K ^ P ",
"X./ / k.W c.+ &.s.F.T.1.4.6.6.,.,.,.6.7.4.1.u.L.) D K ! W I P  .",
"o./  ./ I M.+ o...I C.T.w.5.,.7.6.6.7.9.w.T.P.) A V P W ! W E X.",
"E p v F [ k.+ f.~ D Y J.T.2.q.1.<.1.1.2.T.Z.U A Z B C B v A Z  .",
"c.D.D.M.k.o.@ k./ P  .` j.U.T.y.r.y.R.W.f.A V B D K  .k.N.S.m.;.",
"c M w 9 q &   c./ / [ Y P J h.C.j.L.N c._ B p j P ) +.b 7 e l 5 ",
"m.m.;.Q [ H O m.W V P Y F K P V j $.< { M.C.N.N.B.l.-.% | @.*.*.",
"v d d b L L + ;.Y K Z / P E D s S B.& 4 w 5 6 i y f y # :.' N A ",
"B y y p y J = | ..K &.X./ E E A ^ B.< =.#.%.b.| O.-. .; :.n n P ",
"W d d Z v W > b.s.f.f.[ D P A d W b.X -.A n v A H Y f.q :.n  .^ ",
"K p A A I  .; ;.X._ E W K W s v W %.O O.B n K n F A [ t :.E W ^ ",
"B A A B K ! w #.k.v.k.c.k.o.o. .-.=.$ O.Z P v v S F E l G.K P v ",
"B W D V V ! 4 c c c m M l q e w M r + ( A H D a A A / l H.A.@.v "
};
