/* XPM */
static char *_8dbdc340e4c4309d6831b5a522b016bPRh1lLzUAJ8WnXVm[] = {
/* columns rows colors chars-per-pixel */
"32 32 178 2 ",
"   c #253015",
".  c #2E1E22",
"X  c #2A272F",
"o  c #29292A",
"O  c #33362C",
"+  c #302B31",
"@  c #343435",
"#  c #314A25",
"$  c #344435",
"%  c #3D483C",
"&  c #3C5438",
"*  c #363A42",
"=  c #3B4442",
"-  c #3C424B",
";  c #3E484E",
":  c #3F5569",
">  c #454545",
",  c #40494E",
"<  c #444C54",
"1  c #4A545C",
"2  c #48585A",
"3  c #515151",
"4  c #525B5F",
"5  c #5F5F5F",
"6  c #55644B",
"7  c #5A6A54",
"8  c #5A6E5B",
"9  c #5E715D",
"0  c #61715C",
"q  c #69785E",
"w  c #4D5C64",
"e  c #515A65",
"r  c #4F6064",
"t  c #54666E",
"y  c #5D7364",
"u  c #5A7666",
"i  c #5E7568",
"p  c #546770",
"a  c #556971",
"s  c #577977",
"d  c #5C7C72",
"f  c #627564",
"g  c #657A64",
"h  c #617669",
"j  c #657A6D",
"k  c #697D6B",
"l  c #667E72",
"z  c #687E72",
"x  c #657D7A",
"c  c #6B8275",
"v  c #66817A",
"b  c #6C847B",
"n  c #6F887F",
"m  c #70877B",
"M  c #72897E",
"N  c #5E0E9B",
"B  c #2D6B83",
"V  c #316E87",
"C  c #45788D",
"Z  c #657F84",
"A  c #338AA0",
"S  c #3696B8",
"D  c #4E858A",
"F  c #58868B",
"G  c #568C93",
"H  c #5C939C",
"J  c #6C8682",
"K  c #6E8982",
"L  c #638589",
"P  c #718A84",
"I  c #748E8A",
"U  c #74918E",
"Y  c #7A918D",
"T  c #638F94",
"R  c #6C8D91",
"E  c #738B93",
"W  c #6A9298",
"Q  c #759494",
"!  c #799494",
"~  c #799897",
"^  c #779B9D",
"/  c #7B9A9B",
"(  c #4594A9",
")  c #5098A9",
"_  c #5D9DAC",
"`  c #4898B8",
"'  c #559CB1",
"]  c #699BA8",
"[  c #7597A1",
"{  c #749AA4",
"}  c #7B9DA3",
"|  c #749DAB",
" . c #789EAB",
".. c #669FB0",
"X. c #44A6BF",
"o. c #5AA1B5",
"O. c #5AA4BC",
"+. c #7DA1A6",
"@. c #7DA1AB",
"#. c #63A2B3",
"$. c #76A3B6",
"%. c #78A9BB",
"&. c #47A5CA",
"*. c #46A7CB",
"=. c #57A7C6",
"-. c #4AADD6",
";. c #48AED7",
":. c #4EB1D7",
">. c #4BB1DC",
",. c #58B2D6",
"<. c #56B6DD",
"1. c #7FAFC0",
"2. c #79B1C8",
"3. c #62B4D3",
"4. c #63B7DB",
"5. c #68B6D9",
"6. c #6ABADC",
"7. c #76B6D5",
"8. c #4FB8EA",
"9. c #57BAE3",
"0. c #58BBE6",
"q. c #7BC3DF",
"w. c #5BC1EE",
"e. c #5FC3F3",
"r. c #6EC3E5",
"t. c #63C2EC",
"y. c #6BC4EA",
"u. c #78C4E5",
"i. c #7ECDEC",
"p. c #73CCF2",
"a. c #75CEF8",
"s. c #7CD0F6",
"d. c #7BD2FA",
"f. c #928A8C",
"g. c #829C9E",
"h. c #B39A85",
"j. c #839EA3",
"k. c #81A4A4",
"l. c #83A3AC",
"z. c #83A7B2",
"x. c #85A9B4",
"c. c #8CAAB6",
"v. c #84ABBD",
"b. c #8AB0BE",
"n. c #C9B19D",
"m. c #8EB3C3",
"M. c #8FB6CD",
"N. c #95BAD0",
"B. c #84CAE9",
"V. c #98CEE9",
"C. c #9CD5EB",
"Z. c #85D3F4",
"A. c #89D3F5",
"S. c #87D5F9",
"D. c #8FDBFC",
"F. c #90D8F7",
"G. c #9AD8F3",
"H. c #93DAFC",
"J. c #9BDEFC",
"K. c #A6D9EE",
"L. c #A2DDF5",
"P. c #ABE1F7",
"I. c #A0E1FE",
"U. c #ABE2FA",
"Y. c #BAE3F6",
"T. c #B3E5FC",
"R. c #BEEAFF",
"E. c #D9D9DD",
"W. c #C3D5EF",
"Q. c #CCEEFF",
"!. c #CFF0FF",
"~. c #D4F1FF",
"^. c #DCF3FE",
"/. c #E4F6FE",
"(. c #E9F7FD",
"). c #ECF9FF",
"_. c #F3FBFF",
"`. c #FBFEFF",
/* pixels */
"K z l j l q y l c d X Z ^ x.+.^ % v d 9 b I K 9 P f g.E * @ { i ",
"b h P b z h f k f Z + +.k k 0 U = Q 9 6 I c I Y b g Y j.! 1 | 8 ",
"c K c P I m k 8 k E @ k.c c c K = Q 0 7 b ~ I Y j.m m f g.1 | 8 ",
"K j K K m z m z M W V >.9.s.J.I.I.H.p.<.&.' x ! K Q x z b.w +.y ",
"b b m b I g M H -.p.Q.~./._.`.`.`.`.).^.!.R.a.8.7.$.$.@.x.e l.b ",
"I m I ! P J -.S.Q.^.U.Z.C._.^.G.^._.q.=.o T.~.!.Z.&.w = $ , x.b ",
"Q I ! / o.t.Q./.U.y.C ] P._.i.d Z.(.T.o 8 o r.T./.Q.w.O.x ; b.Q ",
"x.z.Y ` o o o K.u.5.` J././.q._ r./.o 3 h.e o o K././.Z.=.* ~ +.",
"d z.3.X 3 3 > o /././._.`._.^.^.^.o > 5 n.h.o > o o `.).J.B & & ",
"  F o 3 > o o U.L.Y._.`./.Q.U.U.L.o 3 5 n.5 3 3 3 > o ).).Z.2.^ ",
"1 -.o 5 o ^.4...#.5._.~.<.' ' ) o > 3 5 3 5 5 5 5 3 > o `.~.>.c.",
"D S.o 5 X (.Z.q %.U./.0.j P b j o 3 3 5 5 5 5 5 5 5 3 o !.(.A.7.",
"S Q.o 8 3 X ^.r.s.^.U.D U ! z o > 3 5 5 5 5 5 5 5 5 5 > o L.Q.0.",
":.~.0.o 5 o ^.(._.o o o o o o > 3 3 5 5 5 5 3 o o X 3 3 o <.~.e.",
"p.Q.S X > 3 o o o > > 3 3 3 3 3 3 3 5 5 5 5 > W.. E.> 3 o ` Q.d.",
"H.R.#.} o > o > 3 e 5 5 5 5 5 5 5 3 5 5 5 5 3 /.. f.> 8 3 o R.H.",
"H.R.G 9 g o > 3 5 5 5 5 5 5 5 5 5 5 5 5 5 5 5 3 N N 3 5 . o Q.D.",
"p.Q.( 6 o > 3 5 5 5 5 5 5 5 5 5 5 5 5 3 5 5 5 5 5 5 5 3 > o Q.p.",
"0.~.,.! o > 3 5 5 5 5 5 5 5 5 5 5 5 5 3 3 3 5 5 5 5 3 > o <.~.9.",
"&.Q.L.6.o 3 5 5 5 5 5 3 3 3 3 3 3 5 5 3 > > 3 3 > > o o G D.Q.&.",
"#.S.(.^.o 3 5 5 5 5 3 > > > > 3 > 3 5 5 > o X o o o (.G.6.~.A.] ",
"^ -.~.o > 5 5 5 3 3 > o o o o o o > 5 5 5 o u.W G 3./._.^.Q.-.~ ",
"J s t.o 3 5 5 > o o o > o /.o > > o 3 5 5 3 o L.P.Y.(.`.(.y.F Q ",
"@.m.5.o 3 5 5 o o > > > o `.o > > o > 3 5 5 > o _._.`.).H.4.v.| ",
"a h 1 o > 5 5 o q.o o o F.(./.o o o o > 8 r 3 o K./.^.D.A 2 r ; ",
"1.1. .L o o o /.L.3.] K T L.).i.f Z._.o X o o P./.!.e.: W ] $...",
"f 8 8 h z F S A.!.~.T.p.4.B._.^.G.^._.V.B.R.~.Q.Z.X.8 + $.R i c ",
"f 6 7 7 6 k # ' -.p.R.!.^.(._.`.`.`._./.Q.Q.p.>.#.+.Q * $.y u c ",
"P 9 9 h h K & x.g.} =.-.9.p.D.I.L.J.p.0.&.( d z x m j.< $.y Q K ",
"z 7 j h P Q $ +.~ Y J P c K 9 y P } X } f i c y z k E 4 v.n K P ",
"h k l f z P 1 [ l.x.l.l.+.^ W ~ @.@.@ Q h b y y j z J w M.c b y ",
"f K j j j I - p t a a a w < 1 2 p 2 O R j x l 8 j j I w N.m.{ u "
};
