/* XPM */
static char *_cdbbee24874420cc2ea6e302bdd22dcO7QhU3XVZNbsUfPD[] = {
/* columns rows colors chars-per-pixel */
"32 32 151 2 ",
"   c #253015",
".  c #1D1C26",
"X  c #2E1E22",
"o  c #2A272F",
"O  c #29292A",
"+  c #2C352D",
"@  c #2E3E2A",
"#  c #33362C",
"$  c #2C2931",
"%  c #323234",
"&  c #3A3633",
"*  c #353A33",
"=  c #34343D",
"-  c #3C393B",
";  c #314A25",
":  c #38512D",
">  c #344435",
",  c #3D483C",
"<  c #3C5438",
"1  c #4F5834",
"2  c #41513E",
"3  c #363741",
"4  c #393A41",
"5  c #393F4B",
"6  c #3B4442",
"7  c #3B4A46",
"8  c #3C414B",
"9  c #3D484D",
"0  c #3D5742",
"q  c #3D5D4B",
"w  c #454545",
"e  c #43444F",
"r  c #40494E",
"t  c #435147",
"y  c #444C54",
"u  c #45575B",
"i  c #4A535B",
"p  c #4E585C",
"a  c #515151",
"s  c #525B5F",
"d  c #5F5F5F",
"f  c #516147",
"g  c #5B6746",
"h  c #55644C",
"j  c #59674B",
"k  c #526F4A",
"l  c #5E6B4F",
"z  c #496455",
"x  c #5A6B54",
"c  c #546D5C",
"v  c #5A6E5A",
"b  c #5D715D",
"n  c #61784B",
"m  c #616E52",
"M  c #626958",
"N  c #63735D",
"B  c #6A785E",
"V  c #4D5C64",
"C  c #515A65",
"Z  c #4F6064",
"A  c #596463",
"S  c #526967",
"D  c #54666E",
"F  c #557667",
"G  c #5E7363",
"H  c #5E7568",
"J  c #5F786B",
"K  c #546770",
"L  c #556971",
"P  c #5D7472",
"I  c #5C7D78",
"U  c #627664",
"Y  c #667965",
"T  c #6A7963",
"R  c #627569",
"E  c #657A6C",
"W  c #697D6C",
"Q  c #667E73",
"!  c #697E71",
"~  c #657D7A",
"^  c #6F8269",
"/  c #6B8274",
"(  c #678179",
")  c #6C847B",
"_  c #6F887E",
"`  c #728676",
"'  c #70877B",
"]  c #738A7E",
"[  c #5E0E9B",
"{  c #657F84",
"}  c #618087",
"|  c #6C8682",
" . c #6E8982",
".. c #69878C",
"X. c #6C8C8C",
"o. c #708780",
"O. c #718B84",
"+. c #798E86",
"@. c #738D8A",
"#. c #6F908F",
"$. c #73918E",
"%. c #7A938D",
"&. c #6C8D92",
"*. c #708794",
"=. c #768F91",
"-. c #6E9395",
";. c #67909B",
":. c #6E969B",
">. c #759393",
",. c #799594",
"<. c #759893",
"1. c #779799",
"2. c #7A9798",
"3. c #769A9B",
"4. c #7B9A9C",
"5. c #6E96A3",
"6. c #7396A1",
"7. c #7893A4",
"8. c #759BA4",
"9. c #7C9EA3",
"0. c #749CAA",
"q. c #789EAB",
"w. c #7DA1A5",
"e. c #7CA2AB",
"r. c #76A3B6",
"t. c #7EA5B1",
"y. c #77A5B8",
"u. c #928A8C",
"i. c #829C9E",
"p. c #B39A85",
"a. c #829EA2",
"s. c #81A3A5",
"d. c #83A3AB",
"f. c #83ABAF",
"g. c #83A7B2",
"h. c #89A6B1",
"j. c #84AAB4",
"k. c #85ABBC",
"l. c #8CADBC",
"z. c #86B2BD",
"x. c #8AB2BE",
"c. c #C9B19D",
"v. c #87B3C0",
"b. c #8EB3C4",
"n. c #8FB6CD",
"m. c #93B5C6",
"M. c #95BAD0",
"N. c #A0BFD8",
"B. c #D9D9DD",
"V. c #C3D5EF",
"C. c #E6F7FF",
/* pixels */
" .Q Q E Q B G Q ` P O } 4.f.w.3., I E b ' @.o.N o.R i.*.4 % 0.H ",
") R  ._ ! R U E U } $ w.^ W N $.w -.v j @./ @.=.) U =.a.2.i 8.b ",
"/  ./ O.O.` W v W &.& w./ / / ] 2 -.U x ! 2.O.=.a.' ) Y 4.u 0.x ",
" .E o.o._ ` ' ! ' -.* w.U E Y O.- g.E N ) o.! =.o.2.~ ^ l.V e.H ",
") ) ' ) +.Y o.) _ ;.+ 1.G W Y O.$ ..8.e.r.6.l.v.b.k.q.e.h.Z g.) ",
"O.' @.2.O./ @.] X.7.7 X.U ` ! ! 3 u c c O 3 i R W M e 6 > r j.) ",
">.@.,.2.@.>.) ! d.l.5 >.U E W Y &.9.9.O d O k.m.d.4.-.1.~ y l.1.",
"k.h.@.) O O O ) 6.7.= X.Q _ W N / ! O a p.d O O N E W / @.= <.e.",
"I g.l.O a a w O e.N.$ =.) v U l g O w d c.p.O w O O / Y  .+ < 0 ",
"  R O a w O O x < t 9 -.U U / m 1 O a d c.d a a a w O W a.l.l.4.",
"p X.O C O %.>.2.1.% 3.>.! O.o.! O w a d a d d d d a w O ' +.%.h.",
"S s.o M O ] ^ B d.% t.( E  ._ E O a a d d d d d d d a O Y l ( m.",
"z o.O v a o ] +.m.= 9.v @.2.! O w a d d d d d d d d d w O U ` m.",
": | $.O d O %.%.m.O O o O O O w a a d d d d a O O O a a O / ` m.",
"* p A O w a O O O w w a a a a a a a d d d d w V.X B.w a O N W l.",
"w.e.e.3.O w O w a C M d d d d d d a d d d d a C.X u.w d a o T a.",
"! U Y U Y O w a d d d d d d d d d d d d d d d a [ [ a d X O N U ",
"x x x f O w a d d d d d d d d d d d d a d d d d d d d a w O Y v ",
"| G x ,.O w a d d d d d d d d d d d d a a a d d d d a w O W ! Q ",
") ! G ,.O a d d d d d a a a a a a d d a w w a a w w O O E ) O.o.",
"2.@.@.s.O a d d d d a w w w w a w a d d w O O O O O / O.O. .) >.",
"4.@.>.O w d d d a a w O O O O O o w d d d O @.` E E )  .@. .| ,.",
"_ v G O a d d w O O O w O o.O w w O a d d a O Y E U E U G E E >.",
"g.b.m.O a d d O O w w w O _ O w w O w a d d w O W / >.d.x.b.k.q.",
"D L i O w d d O @.O O O ) N Q O O O O w d c a O ) O.3.F q z C 9 ",
"z.k.8...O O O k.' E ) _ ! / ) E N 9.= O O O O z.v.f.w.* ;.5.0.r.",
"G v v J / ( @ e.' / R @.)  .Q v W x.= 5 i 6 0 f k n g O r...J E ",
"U h j v h E ; :.,./ 9.1.@.| | E +.z.3 q.:.0.t.:.3.s.>.- y.H H ) ",
" .M G U U _ < j.i.4.a.=.Q ) E N _ j.. w.E H H E ) o.a.y r.U =.O.",
"/ x E E _ >.> e.2.%. . .~  .v G  .8.O 3.U H / H Q R =.p v.{  .O.",
"R E E U Q O.i 6.d.h.d.d.d.4.1.>.w.e.% 3.R ) G G E Q | C n.) ) G ",
"U  .W E E X.8 K D K L L V y u u L u # #.E ~ Q v Q R @.s M.b.5.G "
};
