/* XPM */
static char *_1d3f60fcafb45aac612d1714980e55bQryzXKfh3m90PKQb[] = {
/* columns rows colors chars-per-pixel */
"32 32 181 2 ",
"   c #1D131A",
".  c #253015",
"X  c #22301A",
"o  c #1D1C26",
"O  c #2A272F",
"+  c #2B2C2B",
"@  c #2C3B23",
"#  c #2C352D",
"$  c #2D3B28",
"%  c #33332D",
"&  c #313B2C",
"*  c #2D2A32",
"=  c #323333",
"-  c #3A3633",
";  c #343A34",
":  c #34343C",
">  c #373C3B",
",  c #3B393B",
"<  c #314A25",
"1  c #344628",
"2  c #38512D",
"3  c #354335",
"4  c #3C4633",
"5  c #3A443A",
"6  c #3D483C",
"7  c #3C5438",
"8  c #464637",
"9  c #41443E",
"0  c #474E3F",
"q  c #4C4D3F",
"w  c #4F5834",
"e  c #41513E",
"r  c #41613F",
"t  c #363642",
"y  c #373940",
"u  c #3A3C41",
"i  c #393F4B",
"p  c #3C4343",
"a  c #3C4A45",
"s  c #3C414B",
"d  c #3D484D",
"f  c #3D5742",
"g  c #3F5248",
"h  c #3D5D4B",
"j  c #424444",
"k  c #434842",
"l  c #4A4D46",
"z  c #42454C",
"x  c #434C4D",
"c  c #435147",
"v  c #454D55",
"b  c #465E56",
"n  c #45575B",
"m  c #4A535B",
"M  c #4E585C",
"N  c #516147",
"B  c #5B6746",
"V  c #56644B",
"C  c #59674B",
"Z  c #526F4A",
"A  c #5E6B4E",
"S  c #496455",
"D  c #5B6B54",
"F  c #546C5C",
"G  c #5B6D5A",
"H  c #5D715D",
"J  c #6A724F",
"K  c #61784B",
"L  c #626E53",
"P  c #616D59",
"I  c #627055",
"U  c #63735D",
"Y  c #68745A",
"T  c #67785E",
"R  c #6A785E",
"E  c #4D5C64",
"W  c #515A65",
"Q  c #5A6665",
"!  c #526967",
"~  c #54666E",
"^  c #566868",
"/  c #567367",
"(  c #5D7363",
")  c #5E7568",
"_  c #5F786B",
"`  c #466772",
"'  c #546770",
"]  c #556971",
"[  c #5D7472",
"{  c #5D7A74",
"}  c #5C7D7C",
"|  c #637664",
" . c #667965",
".. c #697A65",
"X. c #627669",
"o. c #647A6C",
"O. c #697D6C",
"+. c #606B70",
"@. c #607675",
"#. c #657D73",
"$. c #697E71",
"%. c #667D7B",
"&. c #697F78",
"*. c #6E816B",
"=. c #668077",
"-. c #6B8275",
";. c #66827B",
":. c #6C847B",
">. c #6F887E",
",. c #718577",
"<. c #748D76",
"1. c #70877B",
"2. c #728A7E",
"3. c #638284",
"4. c #6B8682",
"5. c #6D8983",
"6. c #66878A",
"7. c #69878C",
"8. c #6D8C8C",
"9. c #708780",
"0. c #718B84",
"q. c #798E86",
"w. c #738E8A",
"e. c #6F908F",
"r. c #769086",
"t. c #74918E",
"y. c #7A938D",
"u. c #7E9D89",
"i. c #658E95",
"p. c #6C8E92",
"a. c #708794",
"s. c #748E94",
"d. c #738D9D",
"f. c #6E9295",
"g. c #67909B",
"h. c #6C939B",
"j. c #759494",
"k. c #799494",
"l. c #759893",
"z. c #75969A",
"x. c #7A9798",
"c. c #75999C",
"v. c #7B9A9C",
"b. c #6E96A3",
"n. c #7396A1",
"m. c #7893A4",
"M. c #759BA3",
"N. c #7C9EA3",
"B. c #749CAA",
"V. c #789EAB",
"C. c #739FB5",
"Z. c #7DA2A5",
"A. c #7DA3AB",
"S. c #76A3B6",
"D. c #7DA4B1",
"F. c #74A2BA",
"G. c #7FADBC",
"H. c #829C9E",
"J. c #829EA2",
"K. c #82A3A6",
"L. c #83A3AC",
"P. c #80A3AF",
"I. c #82A5AF",
"U. c #83ABAF",
"Y. c #84A7B1",
"T. c #89A6B1",
"R. c #84AAB4",
"E. c #8AACB7",
"W. c #84ACBB",
"Q. c #85AABE",
"!. c #8BADBC",
"~. c #86B2BD",
"^. c #8BB2BE",
"/. c #87B2C2",
"(. c #8EB3C3",
"). c #8FB6CD",
"_. c #93B5C6",
"`. c #93B6CA",
"'. c #97B8CA",
"]. c #8EBBD2",
"[. c #A0BFD8",
/* pixels */
"5.$.#.o.o.R ( #.,.[ O 3.c.U.Z.v.6 }  .H :.w.9.U 9.X.H.a.u : M.) ",
":.X.w.:.$.X. .o.| 3.* Z.*.O.U t.p f.G D 0.:.t.t.:...y.J.k.m M.F ",
"-.5.-.5.q.1...G o.p.- K.-.-.-.2.p j.| A O.x.w.y.J.2.:. .H.m B.G ",
"5.o.5.2.:.-.2.$.1.f.; Z.| O. .0., Y.o.H :.0.O.j.4.k.#.$.!.E A.) ",
":.:.1.:.q. .9.:.:.i.# j.| O. .0.* 7.Z.S.A.b.Q.Q.(.Q.B.A.Y.E Y.:.",
"q.1.w.x.0.-.w.0.8.B.a s.H -.-.$.> n F F > y m X...P z p 3 x R.:.",
"s.w.k.x.w.s.-.$.A.!.s j.| #.o. .j.c.Z.5.1 M.W._.L.N.h.x.%.v ~.j.",
"E.Y.w.:.w.w.w.:.n.m.: 8.-.:.*.U -.%.K.c.X f.O. .R X.O.-.w.: l.A.",
"{ Y.!.!.!.Q.`.(.P.[.* w.:.G | A C  .l.c.5 n. . .A o.$.o.9.# 7 e ",
". [ g 3 , 9 F F e c d e.| | -.L w V 5.Z.5 f.U U $... .$.J.!.^.v.",
"M 8.5.w.8.t.t.x.x.= n.j.$.0.5.-.w U -.B.q c.H o. .1.:. .1.q.y.E.",
"! Z.G  .*.<.*.R P.= D.;.o.5.:.o.L ..-.B.q N.| O.$.k.:.O.o.A #._.",
"S 5.D -.k.y.2.q._.: B.G w.k.#.V G G ) B.8 6.D  .5.9.w.9.o.U $.'.",
"2 5.t.l.Z.K.y.y._.v D.-.w.j.w.#./ -.t.f.4 M...O.-.-.w.w...,.,.`.",
"3 M Q v j z Q r.^.y F.#.7.t.1.o.O.) 7.i.& R.-.O.2.w.0.O.Y | O.!.",
"Z.A.N.c.@.4.^ I.R.= h.A.A.W.].S.W./.S.` + A. . .9.4.:.| P ....J.",
"O.) X.|  .8.= x a 5 k l 6 k > + ; 3 3 d > A. . .| *.R X.D U Y  .",
"G G A N ( j.> d.c.h.c.c.s.3.%.} { ] 4 8.z.8.L :.:.| L  ...-.o.G ",
":.H D k.-.j.% 4.#.( ( _ _ o.4.;.5.3.3 z.O.U -.:.2.$.$.:.$.O.-.#.",
":.-.( k.:.N.= 8.=.#.| =.X.) O.<.u.6.5 c.T o.:.t.:.:.| w.o.:.0.:.",
"x.w.w.K.9.R.@ N.t.X.:.O.-.H D *.;.8.> c.o.-.l.4.-.o.-.0.0.:.:.l.",
"v.w.j.t.4.!.$ c.t.o.o. .#.-.J  .2.8.6 c.L :.w.-.#.o.:.5.w.5.4.x.",
"3.G ( $.y.A.$ J.0.#.$.&.j.9.L A { 8.l R.| ( | O. .| |  .( o.o.j.",
"U._._.E.P.d.% T.w.:.w.2.&.:.,.U F l.6 !.o.G X.| #.-.l.A.^._.W.B.",
"~ +.m z v :   Q.w.w.k.-.,.U #.O.A v.* B.t.T T  .:.w.v./ h b E d ",
"G.W.B.7.s.&.+ W.5. .:.2.:.$.:.O.Y N.: d.!.(.R.~.^.U.Z.; h.b.B.C.",
"| H F ) ;.;.$ A.1.-.X.w.:.4.o.G O.~.> i n a f c Z K B + S.p._ o.",
"| V A D V  .< f.k.-.N.x.w.3.4.O.0.~.t V.c.B.R.h.l.Z.j.u S.) ) :.",
"9.G H X.| 4.7 E.H.J.N.s.&.:.X.U 4.R.o Z.o.) ) o.:.1.J.v S.) j.4.",
"-.D o.X.>.l.3 V.x.w.:.0.-.5.G | 0.v.+ M.) _ -.) $.o.s.M Q.:.5.0.",
" .#.#.| $.5.m n.L.T.L.I.L.c.z.j.Z.V.= j.) -.( | o.#.4.W `.:.:.( ",
"| :.O.o.o.w.s ' ~ ~ ' ] E v n m ] n & e.o.&.#.F o.o.w.W '.(.b.( "
};
