/* XPM */
static char *_3d157bd62274b3fa937f0622d6b3b45ZqHbUKZXFdSkjBK7[] = {
/* columns rows colors chars-per-pixel */
"32 32 172 2 ",
"   c #161518",
".  c #18171B",
"X  c #19181B",
"o  c #1D1B20",
"O  c #242326",
"+  c #29272D",
"@  c #2B2A2E",
"#  c #292631",
"$  c #2E2C33",
"%  c #302D36",
"&  c #322F39",
"*  c #343236",
"=  c #35343B",
"-  c #38363D",
";  c #37383E",
":  c #3B3A3D",
">  c #3A3641",
",  c #3D3B42",
"<  c #403D44",
"1  c #424245",
"2  c #44444B",
"3  c #4A464C",
"4  c #4A494C",
"5  c #4A4650",
"6  c #474850",
"7  c #4C4B53",
"8  c #4D4C59",
"9  c #514E56",
"0  c #504F5A",
"q  c #4F5057",
"w  c #4F5259",
"e  c #535256",
"r  c #54535B",
"t  c #59565D",
"y  c #55595D",
"u  c #5A5A5B",
"i  c #555562",
"p  c #595767",
"a  c #575864",
"s  c #5C5B62",
"d  c #575E6D",
"f  c #5C5E6C",
"g  c #615E65",
"h  c #625D6A",
"j  c #5E606B",
"k  c #5F6073",
"l  c #626266",
"z  c #64646C",
"x  c #6C6C6E",
"c  c #78726D",
"v  c #606272",
"b  c #6A6770",
"n  c #6D6C72",
"m  c #6A6C79",
"M  c #706D75",
"N  c #706F7A",
"B  c #6F7077",
"V  c #65727C",
"C  c #6E717A",
"Z  c #6D6E84",
"A  c #747481",
"S  c #787683",
"D  c #7C7C85",
"F  c #73748D",
"G  c #77798A",
"H  c #7A7C8A",
"J  c #7D7D92",
"K  c #817D86",
"L  c #827F89",
"P  c #7D818C",
"I  c #7A8295",
"U  c #7F8598",
"Y  c #848387",
"T  c #85818A",
"R  c #85898E",
"E  c #8B898F",
"W  c #838694",
"Q  c #8E8C94",
"!  c #84859E",
"~  c #918F96",
"^  c #928C9B",
"/  c #899195",
"(  c #8C939C",
")  c #929196",
"_  c #95939B",
"`  c #99969E",
"'  c #939A9F",
"]  c #9A999E",
"[  c #878BA6",
"{  c #8C8DA4",
"}  c #878DA8",
"|  c #8C8EAA",
" . c #908AA1",
".. c #8B94AC",
"X. c #9592A2",
"o. c #9A96A1",
"O. c #939AA3",
"+. c #9D9BA3",
"@. c #9294AB",
"#. c #9897AB",
"$. c #9699AC",
"%. c #9A9AAC",
"&. c #8E92B0",
"*. c #8C98B1",
"=. c #9096B3",
"-. c #949AB3",
";. c #999DB1",
":. c #949FB9",
">. c #A19DA6",
",. c #A39EA9",
"<. c #9DA0A3",
"1. c #93A1B7",
"2. c #9CA2B3",
"3. c #94A3BC",
"4. c #9CA5BA",
"5. c #97A9BD",
"6. c #A3A2A6",
"7. c #ABA3A3",
"8. c #A5A3AA",
"9. c #A9A6AD",
"0. c #AAA9AD",
"q. c #B6AFAF",
"w. c #A1A4B3",
"e. c #A9A5B0",
"r. c #A6A9B3",
"t. c #ADACB2",
"y. c #A8AFBD",
"u. c #B1AFB4",
"i. c #AFB0B3",
"p. c #ACB3BF",
"a. c #B2B2B5",
"s. c #B6B5B9",
"d. c #B8B7BB",
"f. c #B5B8BB",
"g. c #BABBBD",
"h. c #95A6C0",
"j. c #94ABC3",
"k. c #9AAEC6",
"l. c #93B0CB",
"z. c #AEB7C5",
"x. c #B1BAC3",
"c. c #BEBEC1",
"v. c #C1BFC3",
"b. c #B6C1C5",
"n. c #BFC0C3",
"m. c #BBC5CC",
"M. c #C3C3C5",
"N. c #C6C6C8",
"B. c #C9C7CC",
"V. c #C6C9CA",
"C. c #C9CACB",
"Z. c #CACBCC",
"A. c #CBCACE",
"S. c #CDCDCE",
"D. c #CECFD0",
"F. c #CFCFD1",
"G. c #D0CFD1",
"H. c #CFD0D1",
"J. c #D0D2D2",
"K. c #D2D3D4",
"L. c #D3D3D4",
"P. c #D3D4D5",
"I. c #D5D5D6",
"U. c #D7D7D8",
"Y. c #D7D8D8",
"T. c #D9D9D9",
"R. c #DBDBDC",
"E. c #DFDFE0",
"W. c #DEE0E0",
"Q. c #E1E1E1",
"!. c #E3E4E4",
"~. c gray90",
/* pixels */
"I.Q.T.L.S.E.R.U.L.v.x N.L.I.G.T.Q.~.L.4 g.J.S.G.A.B.Q.E.T.A.6.q ",
"~.o.L  .>.9.,.,.>.C.x G.,.>.,.^ +.d.I.M s.o.E o.X.>.6.,.o.Q g.u ",
"~.E 8.u.u.9.,.9.>.c.l d.E ) >.9.0.a.S.Y g.^ >.,.u.` >.9.] Q M.x ",
"T.6.+.t.t.9.,.t.s.C.x N.] ,.u.u.u.0.L.,.T.^ +.u.6.o.0.+.0.] C.e ",
"~.6.0.t.>.6.u.u.v.I.l S.` ` ,.6.d.s.L.~ M.9.#.o.9.t.+._ a.] M.e ",
"~.+.a.t.u.s.M.G.P.L.4 s.N.G.G.G.L.G.g.- a.G.v.N.M.s.6.] 0.+.C.4 ",
"~.` 0.9.a.M.1 @ - 7 X g M > , # 3 7 t o i 5 > $ s F.+.+.6.u.C.4 ",
"S.9.7.s.0.G.4 = > 9 2 s h 2 , 5 7 5 9 . 9 < # $ , A.+.` 7.>.N.1 ",
"Y.6.] E 0.T.$ + * = i k v k k f f f f v 0 7 Z Z 8 M.` ] E ` s., ",
"S.c.N.I.P.s.$ l 2 2 A X.....} ..! $.@.G f x.{ W r M.g.L.N.A.H.: ",
"t L ~ z e 9 O f I w 7 F X.[ 1.} ;.z.C a N.2.@.^ i $ e M t t t : ",
"I.v.c.c.S.s.: 9 P O.l 3 J O.{ -.z.R 7 m.r.#.| H 0 g.M.M.M.M.J.2 ",
"L.u.^ ^ ,.g.@ r v N Y c * F y.y.e 2 z.t.-.@.| { s n.s.9.+.a.L.4 ",
"G.g.u.,._ B.< s m S D +.V d H 2 6 b.2...-.#.#.#.j g.+._ t.^ N.4 ",
"L.9.>.u.>.G.< t b x T w.b.k 2 j m.#.#.;.;.#.#.;.a F.` +.6.9.M.4 ",
"L.>.u.u.,.G.< g z b 7.z.2.w j y.@.{ -.;.w.$.8.#.a M.g.9.0.8.g.4 ",
"S.+.a.9.t.C., n K W 1.z.7 s m.-.[ ;.5.2.6.$.;.I i t.t.0.] ) s.4 ",
"J.6.9.6.9.S., N S W 2.j y m.@.-.*.-.5.8.7.7.=.! j t.6.0._ 0.g.4 ",
"M.t.u.6.] ~.= S S %.P 6 x.1.=.k.9.t.1.%.q.9.[ I A n./ ] <.) S.e ",
"] g.A.T.T.g.$ v ( q 2 ( 4.5.5.:.j.h.:.o.,.*.1.W C f.9.f.d.g.a.l ",
"< e g e : 1 $ B 6 ; r *.&.-.w.7.l.j.r.o.@.j.1.2.s z x D x l 1   ",
"S.I.S.I.V.f.* y = 2 / 4.| *.r.9.h.2. .2.3.W P f i _ M.C.Q.Y.M.1 ",
"L.u.^ >.+.W.$ @ 6 ! j ' #.| :.5.[ o.#.*.[ w.p 7 e 8.i.+.] 6.M.4 ",
"F.0.,.6.8.S.P 6 z H z e R A G z r e t z n f e t j R.6.a.t.` g.1 ",
"R.0.8.+.i.Y.Y.S.M.A.z M.g.0.C.P.W.R.M.z Q.!.Y.Y.~.R.o.+.9.a.I.: ",
"~.6._ a.f.0.+.^ +.u.x S.a.u.0.g.6.q.C.D I.+.+.Q 0.a.C.+.9.6.A.: ",
"F.t.0.a.a.a.9.6.E a.t M.) s.g.t.i.i.M.M N.] 0.s.0.Q c.+.a.6.H.< ",
"!.a.9.9._ t.<.9.9.d.g c._ ,.s.s.8.6.N.s V.^ 8.J.M.g.B.s.g.<.A.* ",
"~.s.>.g.a.n.f.s._ M.t M.6.^ e.d.8.e.A.g M.M.g.d.M.N.A.c.i.] M.* ",
"J.R.G.U.W.!.A.~.M.c.: M.G.A.~.L.J.R.S.1 G.c.L.R.~.T.J.H.I.s.f.O ",
"0.s 0 2 e & > $ 4 t $ Y n 9 = > # : 7 + L 5 9 - 5 7 2 3 , 9 9 X ",
"] g 2 - r > < ; % 4 + n t 3 = - # = 4 O K 2 , # < # $ % $ , 7   "
};
